<svg width="492" height="434" viewBox="0 0 492 434" fill="none" xmlns="http://www.w3.org/2000/svg">
<path d="M335 294H278.5H277.5V303H261V311H253.5V350.5H261V358H270V366H294V374.5H318V382.5H326.5V390H318.1V398L285.5 398.5V390H270V382.5H253.5V415.5H270V422.5H335V415.5H350V398.5H358.5V366H350V358H342V350.5H318V343H294V334.5H285.5V326.5H294V318.5H318V325.5H335V334.5H350V303H335V294Z" fill="white" stroke="black" stroke-width="8"/>
<path d="M4.5 398H36.5V430H237.5V429.5V357.5H109V326H76.5V110H109V78V77H359V109.5H390V238H464V37H432V4.5H431H36.5V36.5H4.5V398Z" fill="white"/>
<path d="M36.5 434V430M36.5 430V398H4.5V36.5H36.5V4.5H431H432V37H464V238H390V109.5H359V77H109V78V110H76.5V326H109V357.5H237.5V429.5V430H36.5Z" stroke="black" stroke-width="8"/>
<path d="M407 254H375H374.5V422.5H406V382.25H414V391H421.5V398H430.5V405.5H439V415H446.5V422.5H487.5V407.5H479V399H471.5V391H463V383.5H454.5V375.5H446.5V358.5H439V351.5H446.5V350.5V343.5H455.5V335H463.5V326H471.5V318.5H479.5V310.5H487.5V293.5H446.5V302H439V310.5H430V318.5H422.5V326H414.5V335H407V254Z" fill="white"/>
<path d="M407 343.5V335M407 335V254H375H374.5V422.5H406V382.25H414M407 335H414.5V326H422.5V318.5H430V310.5H439V302H446.5V293.5H487.5V310.5H479.5V318.5H471.5V326H463.5V335H455.5V343.5H446.5V350.5V351.5H439V358.5H446.5V375.5H454.5V383.5H463V391H471.5V399H479V407.5H487.5V422.5H446.5V415H439V405.5H430.5V398H421.5V391H414V382.25M414 373.5V382.25" stroke="black" stroke-width="8"/>
<path d="M374.5 258V250" stroke="black" stroke-width="8"/>
</svg>
